<?xml version="1.0" encoding="utf-8"?>
<!-- Brain icon by Arthur Shlain from Usefulicons.com -->
<svg xmlns="http://www.w3.org/2000/svg" xmlns:xlink="http://www.w3.org/1999/xlink" xml:space="preserve" version="1.1" x="0px" y="0px" viewBox="0 0 100 100" width="400px" height="400px"><path d="M90.063,67.5C90.063,63.829,88.678,60.311,86.281,57.607C89.421,54.34,90.743,49.635,89.609,45.097C88.619,41.14,85.917,37.957,82.386,36.273C84.705,33.127,85.589,29.05,84.6,25.097C83.353,20.107,79.386,16.345,74.462,15.277C72.762,10.322,68.58,6.513,63.392,5.36C58.587,4.292,53.601,5.655,50,8.854C46.397,5.655,41.409,4.293,36.608,5.362C31.422,6.515,27.24,10.323,25.54,15.277C20.611,16.342,16.641,20.106,15.392,25.098C14.403,29.053,15.288,33.131,17.609,36.277C14.081,37.961,11.382,41.143,10.392,45.098C9.257,49.636,10.58,54.341,13.72,57.608C11.323,60.312,9.938,63.83,9.938,67.501C9.938,71.921,11.946,76.117,15.319,78.933C17.386,85.669,23.535,90.155,30.453,90.155C30.724,90.155,30.998,90.138,31.271,90.124C33.648,93.165,37.34,95,41.25,95C44.541,95,47.672,93.694,50,91.469C52.328,93.694,55.459,95,58.75,95C62.66,95,66.352,93.165,68.729,90.124C69.002,90.138,69.276,90.155,69.547,90.155C76.465,90.155,82.614,85.668,84.681,78.933C88.056,76.116,90.063,71.92,90.063,67.5ZM41.25,90C38.551,90,36.024,88.556,34.654,86.231C34.651,86.226,34.647,86.222,34.643,86.217C34.586,86.122,34.517,86.038,34.449,85.952C34.413,85.907,34.383,85.856,34.345,85.814C34.305,85.77,34.256,85.735,34.213,85.694C33.9,85.397,33.527,85.183,33.121,85.078C33.085,85.069,33.046,85.068,33.009,85.06C32.887,85.035,32.765,85.011,32.64,85.004C32.6,85.002,32.558,85.009,32.517,85.008C32.392,85.007,32.268,85.008,32.143,85.026C32.137,85.027,32.132,85.026,32.126,85.027C26.996,85.806,22.162,82.911,20.345,78.189L24.267,74.267C25.244,73.291,25.244,71.708,24.267,70.732C23.291,69.755,21.707,69.755,20.732,70.732L17.421,74.043C15.845,72.25,14.937,69.925,14.937,67.499C14.937,64.612,16.225,61.869,18.396,59.999L22.5,59.999C23.881,59.999,25,58.88,25,57.499S23.881,55,22.5,55L18.328,55C15.669,52.987,14.423,49.588,15.242,46.311C16.062,43.033,18.754,40.594,22.049,40.07L27.403,42.747C26.32,43.885,25.513,45.286,25.088,46.843C24.725,48.175,25.51,49.549,26.842,49.913C28.175,50.276,29.548,49.491,29.912,48.159C30.341,46.586,31.585,45.342,33.158,44.913C34.158,44.64,34.886,43.779,34.988,42.747C35.09,41.716,34.545,40.728,33.618,40.265L23.788,35.35C20.802,33.397,19.376,29.778,20.242,26.312C21.108,22.85,24.064,20.33,27.611,20.008C30.812,20.077,34.552,23.098,35.732,24.269C36.22,24.756,36.86,25,37.5,25S38.78,24.756,39.268,24.268C40.245,23.292,40.245,21.709,39.268,20.733C38.797,20.261,35.271,16.851,30.861,15.528C32.23,12.884,34.71,10.906,37.693,10.243C41.306,9.441,45.062,10.701,47.501,13.438L47.501,32.51C44.608,30.88,41.338,30,37.929,30L37.5,30C36.119,30,35,31.119,35,32.5S36.119,35,37.5,35L37.929,35C41.489,35,44.846,36.281,47.5,38.603L47.5,53.937C46.393,54.829,44.936,55.21,43.515,54.925C41.816,54.585,40.42,53.353,39.872,51.709C39.435,50.398,38.017,49.691,36.71,50.128C35.4,50.565,34.692,51.98,35.129,53.29C36.243,56.632,39.081,59.137,42.535,59.828C43.174,59.955,43.817,60.018,44.456,60.018C45.496,60.018,46.523,59.851,47.501,59.533L47.501,69.817C43.606,69.355,36.382,67.714,34.926,61.893C34.591,60.554,33.233,59.74,31.894,60.074C30.555,60.409,29.74,61.766,30.075,63.106C30.824,66.103,32.443,68.342,34.448,70.019C32.963,72.444,31.978,75.416,31.389,77.69C31.042,79.026,31.845,80.391,33.182,80.737C33.392,80.792,33.603,80.818,33.811,80.818C34.922,80.818,35.937,80.071,36.229,78.944C36.908,76.325,37.771,74.143,38.709,72.621C41.924,74.048,45.285,74.622,47.5,74.849L47.5,86.739C46.077,88.758,43.742,90,41.25,90ZM81.664,74.95C78.844,74.71,76.211,73.28,74.5,71C71.682,67.243,67.196,65,62.5,65C61.119,65,60,66.119,60,67.5S61.119,70,62.5,70C65.631,70,68.621,71.495,70.5,74C72.606,76.808,75.646,78.769,79.007,79.581C77.182,82.86,73.786,84.98,70,85.141L70,82.5C70,81.119,68.881,80,67.5,80S65,81.119,65,82.5L65,86.738C63.577,88.758,61.242,90,58.75,90S53.923,88.758,52.5,86.738L52.5,83.091L52.5,83.09C53.453,81.184,55.369,80,57.5,80C58.881,80,60,78.881,60,77.5S58.881,75,57.5,75C55.708,75,54.008,75.464,52.5,76.271L52.5,56.082C53.606,55.19,55.063,54.809,56.485,55.094C58.184,55.434,59.58,56.666,60.128,58.31C60.477,59.358,61.452,60.02,62.499,60.02C62.761,60.02,63.028,59.978,63.29,59.891C64.6,59.454,65.308,58.039,64.871,56.729C63.757,53.387,60.919,50.882,57.465,50.191C55.785,49.856,54.078,49.98,52.499,50.492L52.499,32.492C55.392,34.12,58.662,35,62.071,35L62.5,35C63.881,35,65,33.881,65,32.5S63.881,30,62.5,30L62.071,30C58.511,30,55.154,28.719,52.5,26.397L52.5,13.437C54.938,10.7,58.695,9.44,62.307,10.243C65.29,10.906,67.77,12.884,69.139,15.528C64.729,16.852,61.203,20.262,60.732,20.733C59.755,21.709,59.755,23.292,60.732,24.268C61.22,24.756,61.86,25,62.5,25S63.78,24.756,64.268,24.268C65.362,23.174,69.171,20.081,72.384,20.007C75.93,20.331,78.884,22.849,79.75,26.311C80.572,29.602,79.313,33.016,76.631,35.026C73.266,35.152,69.923,35.994,66.911,37.5L61.383,40.264C60.148,40.881,59.648,42.383,60.265,43.618C60.882,44.853,62.385,45.354,63.619,44.736L69.146,41.972C71.696,40.697,74.547,40.016,77.397,40C80.941,40.325,83.893,42.85,84.758,46.31C85.571,49.562,84.369,52.952,81.753,54.971C79.479,54.796,77.363,53.826,75.732,52.196L74.268,50.732C73.292,49.755,71.708,49.755,70.733,50.732C69.756,51.708,69.756,53.291,70.733,54.267L72.197,55.731C74.723,58.257,78.016,59.726,81.549,59.953C83.754,61.824,85.064,64.588,85.064,67.499C85.063,70.361,83.8,73.081,81.664,74.95Z" stroke="none"></path></svg>