<?xml version="1.0" encoding="UTF-8" standalone="no"?>
<svg
   width="128"
   height="128"
   viewBox="0 0 128 128"
   version="1.1"
   id="svg128"
   sodipodi:docname="icon.svg"
   inkscape:version="1.2.1 (9c6d41e, 2022-07-14)"
   xmlns:inkscape="http://www.inkscape.org/namespaces/inkscape"
   xmlns:sodipodi="http://sodipodi.sourceforge.net/DTD/sodipodi-0.dtd"
   xmlns="http://www.w3.org/2000/svg"
   xmlns:svg="http://www.w3.org/2000/svg">
  <defs
     id="defs132" />
  <sodipodi:namedview
     id="namedview130"
     pagecolor="#505050"
     bordercolor="#eeeeee"
     borderopacity="1"
     inkscape:showpageshadow="0"
     inkscape:pageopacity="0"
     inkscape:pagecheckerboard="0"
     inkscape:deskcolor="#505050"
     showgrid="false"
     inkscape:zoom="1.84375"
     inkscape:cx="61.016949"
     inkscape:cy="64"
     inkscape:window-width="1309"
     inkscape:window-height="456"
     inkscape:window-x="0"
     inkscape:window-y="34"
     inkscape:window-maximized="0"
     inkscape:current-layer="svg128" />
  <!-- Background (optional, subtle gradient for depth) -->
  <rect
     width="128"
     height="128"
     fill="#F5F6F5"
     rx="16"
     id="rect110" />
  <!-- Brain-like shape with interconnected nodes -->
  <g
     transform="matrix(0.7,0,0,0.7,32,2)"
     id="g124">
    <path
       d="M 32,48 C 16,48 8,64 16,80 24,96 40,96 48,80 56,64 48,48 32,48"
       fill="none"
       stroke="#4a90e2"
       stroke-width="4"
       id="path112" />
    <path
       d="M 64,48 C 80,48 88,64 80,80 72,96 56,96 48,80 40,64 48,48 64,48"
       fill="none"
       stroke="#4a90e2"
       stroke-width="4"
       id="path114" />
    <circle
       cx="32"
       cy="48"
       r="4"
       fill="#50c878"
       id="circle116" />
    <circle
       cx="64"
       cy="48"
       r="4"
       fill="#50c878"
       id="circle118" />
    <circle
       cx="48"
       cy="80"
       r="4"
       fill="#50c878"
       id="circle120" />
    <path
       d="M 32,48 48,80 64,48"
       fill="none"
       stroke="#4a90e2"
       stroke-width="2"
       id="path122" />
  </g>
  <!-- Text: CogniRead -->
  <text
     x="64"
     y="92"
     font-family="Arial, sans-serif"
     font-size="14px"
     font-weight="bold"
     fill="#333333"
     text-anchor="middle"
     id="text126">CogniRead</text>
</svg>
